<svg xmlns="http://www.w3.org/2000/svg" xmlns:xlink="http://www.w3.org/1999/xlink" width="500" zoomAndPan="magnify" viewBox="0 0 375 374.999991" height="500" preserveAspectRatio="xMidYMid meet" version="1.0"><defs><g/><clipPath id="6c6e08f0e0"><path d="M 8.953125 9.703125 L 364.546875 9.703125 L 364.546875 365.296875 L 8.953125 365.296875 Z M 8.953125 9.703125 " clip-rule="nonzero"/></clipPath><clipPath id="ac2beb0833"><path d="M 186.75 9.703125 C 88.554688 9.703125 8.953125 89.304688 8.953125 187.5 C 8.953125 285.695312 88.554688 365.296875 186.75 365.296875 C 284.945312 365.296875 364.546875 285.695312 364.546875 187.5 C 364.546875 89.304688 284.945312 9.703125 186.75 9.703125 Z M 186.75 9.703125 " clip-rule="nonzero"/></clipPath><clipPath id="0465aaa0a8"><path d="M 8.953125 9.703125 L 364.453125 9.703125 L 364.453125 365.203125 L 8.953125 365.203125 Z M 8.953125 9.703125 " clip-rule="nonzero"/></clipPath><clipPath id="f4b7a196ff"><path d="M 186.75 9.703125 C 88.554688 9.703125 8.953125 89.304688 8.953125 187.5 C 8.953125 285.691406 88.554688 365.296875 186.75 365.296875 C 284.941406 365.296875 364.546875 285.691406 364.546875 187.5 C 364.546875 89.304688 284.941406 9.703125 186.75 9.703125 Z M 186.75 9.703125 " clip-rule="nonzero"/></clipPath><clipPath id="c1beff56cc"><path d="M 59.460938 9.703125 L 375 9.703125 L 375 365.296875 L 59.460938 365.296875 Z M 59.460938 9.703125 " clip-rule="nonzero"/></clipPath><clipPath id="e431bca3ab"><path d="M 246.960938 9.703125 C 143.40625 9.703125 59.460938 89.304688 59.460938 187.5 C 59.460938 285.695312 143.40625 365.296875 246.960938 365.296875 C 350.511719 365.296875 434.457031 285.695312 434.457031 187.5 C 434.457031 89.304688 350.511719 9.703125 246.960938 9.703125 Z M 246.960938 9.703125 " clip-rule="nonzero"/></clipPath></defs><rect x="-37.5" width="450" fill="#ffffff" y="-37.499999" height="449.999989" fill-opacity="1"/><rect x="-37.5" width="450" fill="#000000" y="-37.499999" height="449.999989" fill-opacity="1"/><g clip-path="url(#6c6e08f0e0)"><g clip-path="url(#ac2beb0833)"><path fill="#ffffff" d="M 8.953125 9.703125 L 364.546875 9.703125 L 364.546875 365.296875 L 8.953125 365.296875 Z M 8.953125 9.703125 " fill-opacity="1" fill-rule="nonzero"/></g></g><g clip-path="url(#0465aaa0a8)"><g clip-path="url(#f4b7a196ff)"><path stroke-linecap="butt" transform="matrix(0.75, 0, 0, 0.75, 8.951641, 9.701637)" fill="none" stroke-linejoin="miter" d="M 237.064479 0.00198437 C 106.137395 0.00198437 0.0019783 106.137401 0.0019783 237.064485 C 0.0019783 367.98636 106.137395 474.126985 237.064479 474.126985 C 367.986354 474.126985 474.126979 367.98636 474.126979 237.064485 C 474.126979 106.137401 367.986354 0.00198437 237.064479 0.00198437 Z M 237.064479 0.00198437 " stroke="#ffffff" stroke-width="52" stroke-opacity="1" stroke-miterlimit="4"/></g></g><g clip-path="url(#c1beff56cc)"><g clip-path="url(#e431bca3ab)"><path fill="#000000" d="M 59.460938 9.703125 L 434.503906 9.703125 L 434.503906 365.296875 L 59.460938 365.296875 Z M 59.460938 9.703125 " fill-opacity="1" fill-rule="nonzero"/></g></g><g fill="#ffffff" fill-opacity="1"><g transform="translate(93.95156, 200.427364)"><g><path d="M 16.292969 -20.839844 C 16.550781 -21.355469 16.980469 -21.785156 17.324219 -22.125 C 17.410156 -22.125 17.667969 -21.957031 17.753906 -21.957031 C 18.609375 -22.296875 19.554688 -22.382812 20.152344 -23.15625 C 20.324219 -23.414062 20.667969 -23.5 21.011719 -23.585938 C 21.957031 -23.757812 22.8125 -24.269531 23.671875 -24.699219 C 24.011719 -25.300781 24.441406 -25.300781 25.042969 -25.300781 C 25.300781 -25.300781 25.472656 -25.386719 25.644531 -25.558594 C 26.5 -26.070312 27.101562 -26.5 27.785156 -26.929688 C 28.300781 -27.359375 28.816406 -27.617188 29.332031 -27.957031 C 29.757812 -28.214844 30.1875 -28.128906 30.53125 -28.558594 C 30.789062 -28.816406 31.21875 -28.902344 31.390625 -29.246094 C 31.390625 -29.332031 33.363281 -30.617188 33.617188 -30.617188 C 34.21875 -30.789062 34.648438 -31.21875 34.734375 -31.902344 C 34.734375 -32.160156 34.992188 -32.246094 35.25 -32.332031 C 35.503906 -32.332031 35.761719 -32.332031 35.847656 -32.589844 C 36.105469 -33.105469 36.621094 -33.191406 36.964844 -33.53125 C 37.308594 -33.960938 37.308594 -33.960938 36.792969 -34.5625 C 36.707031 -34.734375 36.792969 -35.078125 36.964844 -35.078125 C 37.136719 -35.164062 37.308594 -35.164062 37.476562 -35.164062 C 37.648438 -35.164062 37.820312 -35.164062 37.992188 -35.25 C 38.078125 -35.25 38.25 -35.417969 38.335938 -35.503906 C 39.792969 -36.277344 40.996094 -37.390625 41.421875 -39.109375 C 41.59375 -39.792969 41.9375 -40.394531 42.453125 -40.910156 C 42.96875 -41.421875 43.308594 -42.195312 43.308594 -42.882812 C 43.394531 -43.738281 43.652344 -44.511719 43.824219 -45.28125 C 44.167969 -46.910156 44.082031 -48.371094 43.480469 -49.828125 C 42.195312 -53 41.082031 -54.203125 38.25 -56.261719 C 37.648438 -56.601562 37.050781 -57.117188 36.363281 -57.289062 C 35.417969 -57.460938 34.5625 -57.71875 33.703125 -58.0625 C 33.105469 -58.320312 32.589844 -58.402344 31.988281 -58.402344 C 31.730469 -58.402344 31.390625 -58.402344 31.132812 -58.402344 C 30.789062 -58.402344 30.53125 -58.402344 30.1875 -58.488281 C 29.589844 -58.746094 28.902344 -58.746094 28.300781 -58.746094 C 25.816406 -58.746094 24.011719 -58.660156 21.527344 -58.320312 C 18.183594 -57.632812 13.550781 -54.628906 11.75 -51.628906 C 10.207031 -49.484375 9.089844 -47.167969 8.234375 -44.855469 C 7.375 -42.539062 7.203125 -39.964844 6.691406 -37.5625 C 6.773438 -36.277344 6.175781 -35.25 6.347656 -33.960938 C 6.347656 -33.789062 6.261719 -33.617188 6.261719 -33.53125 C 5.917969 -33.019531 6.175781 -32.246094 5.917969 -31.730469 C 5.746094 -30.960938 5.746094 -30.359375 5.660156 -29.589844 C 5.660156 -29.417969 5.660156 -29.160156 5.574219 -28.988281 C 5.316406 -28.386719 5.402344 -27.785156 5.316406 -27.273438 C 5.316406 -26.5 5.488281 -25.816406 5.058594 -25.042969 C 4.972656 -24.785156 5.144531 -24.527344 5.230469 -24.183594 C 5.402344 -23.5 4.972656 -22.8125 4.375 -22.8125 L 0.6875 -22.8125 C 0.257812 -22.726562 -0.171875 -22.125 0 -21.785156 C 0.34375 -21.097656 0.257812 -20.582031 0.34375 -19.898438 C 0.34375 -19.125 0.429688 -18.953125 1.199219 -18.953125 L 4.289062 -18.953125 C 4.460938 -18.953125 4.71875 -18.78125 4.71875 -18.523438 C 4.71875 -18.011719 4.800781 -17.324219 4.632812 -16.808594 C 4.375 -16.125 4.460938 -15.4375 4.375 -14.75 L 4.375 -11.578125 C 4.375 -11.320312 4.375 -10.976562 4.289062 -10.71875 C 4.03125 -10.207031 4.03125 -9.605469 4.03125 -9.003906 L 4.03125 -2.144531 C 4.03125 -1.800781 4.117188 -1.285156 3.945312 -0.945312 C 3.6875 -0.171875 3.945312 0.6875 4.03125 1.457031 C 4.117188 2.144531 4.289062 2.832031 4.71875 3.34375 C 5.058594 3.6875 5.144531 4.203125 4.800781 4.632812 C 4.71875 4.886719 4.71875 5.144531 4.972656 5.144531 C 5.488281 5.488281 5.574219 5.917969 5.917969 6.347656 C 6.003906 6.433594 6.089844 6.519531 6.175781 6.519531 C 6.347656 6.519531 6.433594 6.433594 6.519531 6.261719 C 7.03125 4.71875 7.71875 3.257812 8.0625 1.714844 C 8.320312 0.34375 8.660156 -1.027344 9.175781 -2.316406 C 9.519531 -3.257812 9.691406 -4.289062 9.949219 -5.144531 C 10.035156 -5.574219 10.121094 -5.832031 10.207031 -6.175781 C 10.804688 -7.546875 11.234375 -9.003906 11.921875 -10.378906 C 12.179688 -10.71875 12.179688 -11.234375 12.351562 -11.664062 C 12.4375 -12.007812 12.605469 -12.4375 12.777344 -12.777344 C 13.121094 -13.550781 13.464844 -14.324219 13.894531 -15.179688 C 14.066406 -15.09375 14.238281 -15.007812 14.40625 -14.835938 C 15.09375 -14.066406 15.867188 -13.292969 16.636719 -12.519531 C 17.410156 -11.75 18.265625 -11.0625 18.953125 -10.121094 L 19.210938 -9.863281 C 20.925781 -8.148438 22.296875 -6.175781 23.929688 -4.460938 L 24.011719 -4.375 C 24.957031 -2.660156 26.585938 -1.542969 27.617188 0.0859375 C 28.644531 1.542969 30.101562 2.488281 31.046875 4.117188 C 31.816406 4.632812 32.332031 5.488281 32.933594 6.175781 C 33.617188 6.773438 34.132812 7.289062 34.5625 8.0625 C 34.820312 8.492188 35.25 9.003906 35.675781 9.261719 C 36.535156 9.777344 37.222656 10.546875 37.90625 11.320312 C 38.679688 12.351562 39.792969 12.863281 40.652344 13.894531 C 40.738281 13.894531 40.824219 13.980469 40.824219 13.980469 C 40.910156 13.894531 41.082031 13.894531 41.164062 13.894531 C 41.59375 13.894531 41.851562 14.40625 42.109375 14.664062 C 42.367188 15.007812 42.796875 15.179688 43.054688 15.351562 C 43.222656 15.4375 43.394531 15.4375 43.480469 15.265625 C 43.566406 15.179688 43.652344 15.007812 43.652344 14.835938 C 43.394531 14.066406 42.796875 13.636719 42.195312 13.121094 C 41.679688 12.777344 41.25 12.4375 40.824219 11.835938 C 39.878906 10.890625 39.195312 9.691406 37.992188 8.917969 C 37.90625 8.917969 37.820312 8.746094 37.820312 8.660156 C 37.648438 8.148438 37.050781 8.0625 36.707031 7.632812 C 36.449219 7.203125 36.105469 6.605469 35.761719 6.261719 C 35.503906 5.917969 35.164062 5.574219 34.820312 5.230469 C 34.132812 4.886719 33.617188 4.289062 33.105469 3.601562 C 32.675781 2.746094 31.902344 2.058594 31.21875 1.199219 C 30.1875 0.6875 29.84375 -0.773438 28.816406 -1.199219 C 28.730469 -1.199219 28.730469 -1.285156 28.730469 -1.371094 C 28.644531 -2.144531 28.128906 -2.488281 27.703125 -3 C 27.101562 -3.6875 26.328125 -4.289062 25.898438 -5.144531 C 25.214844 -5.316406 25.214844 -6.175781 24.613281 -6.347656 C 24.527344 -6.433594 24.355469 -6.605469 24.355469 -6.691406 C 24.269531 -7.289062 24.011719 -7.546875 23.585938 -7.71875 C 23.328125 -7.890625 23.15625 -8.0625 22.984375 -8.40625 C 22.640625 -9.605469 16.039062 -16.210938 15.007812 -17.152344 C 14.75 -17.324219 14.664062 -17.582031 14.835938 -17.925781 C 15.351562 -18.867188 15.867188 -19.8125 16.292969 -20.839844 Z M 28.644531 -31.304688 C 28.386719 -30.617188 27.957031 -30.617188 27.359375 -30.617188 L 27.359375 -30.960938 C 26.929688 -30.960938 26.5 -30.703125 26.15625 -30.445312 C 24.871094 -29.929688 23.757812 -29.160156 22.554688 -28.644531 C 21.613281 -28.128906 20.753906 -27.617188 19.726562 -27.445312 C 19.726562 -27.617188 19.726562 -27.785156 19.8125 -27.957031 C 20.410156 -28.816406 20.753906 -29.84375 21.183594 -30.703125 C 24.011719 -36.019531 28.128906 -43.996094 28.902344 -50 C 28.988281 -50.855469 28.988281 -51.628906 28.730469 -52.402344 C 28.558594 -53.085938 28.214844 -53.429688 27.703125 -53.601562 C 27.53125 -53.6875 27.445312 -53.6875 27.273438 -53.773438 C 26.328125 -53.171875 25.816406 -52.230469 25.558594 -51.027344 C 25.386719 -49.914062 25.128906 -48.882812 24.785156 -47.855469 C 24.097656 -46.226562 23.585938 -44.339844 22.984375 -42.625 C 22.640625 -41.765625 22.296875 -41.082031 21.957031 -40.222656 C 21.871094 -40.050781 21.699219 -39.878906 21.871094 -39.621094 C 22.039062 -39.449219 22.039062 -39.195312 21.957031 -38.9375 C 21.957031 -38.851562 21.871094 -38.765625 21.785156 -38.765625 C 21.699219 -38.765625 21.527344 -38.9375 21.441406 -38.765625 C 21.183594 -38.335938 20.925781 -37.734375 20.753906 -37.222656 C 20.667969 -37.050781 20.667969 -36.792969 20.496094 -36.621094 C 19.554688 -35.417969 19.039062 -33.789062 18.097656 -32.675781 C 17.753906 -32.074219 17.582031 -31.476562 17.238281 -30.875 C 16.894531 -30.1875 16.550781 -29.417969 16.210938 -28.816406 C 15.78125 -28.042969 15.695312 -27.273438 15.09375 -26.585938 C 15.007812 -26.5 15.007812 -26.328125 15.007812 -26.15625 C 13.894531 -23.671875 9.089844 -23.242188 6.773438 -23.242188 C 6.519531 -23.242188 6.347656 -23.414062 6.347656 -23.671875 C 6.433594 -25.128906 6.175781 -26.585938 6.605469 -27.957031 C 6.691406 -28.300781 6.691406 -28.730469 6.691406 -29.074219 C 6.691406 -29.589844 6.605469 -30.273438 6.945312 -30.789062 C 6.945312 -30.875 7.03125 -31.046875 6.945312 -31.304688 C 6.859375 -32.589844 7.289062 -33.703125 7.375 -34.90625 C 7.460938 -35.589844 7.804688 -36.191406 7.976562 -36.878906 C 8.148438 -37.308594 8.320312 -37.734375 8.320312 -38.25 C 8.320312 -39.109375 8.832031 -39.878906 9.175781 -40.738281 C 9.691406 -42.109375 10.207031 -43.480469 10.632812 -44.941406 C 10.804688 -45.539062 11.148438 -46.140625 11.664062 -46.570312 C 12.007812 -46.910156 12.351562 -47.425781 12.351562 -47.941406 C 12.265625 -48.882812 12.691406 -49.398438 13.207031 -50 C 13.464844 -50.34375 13.550781 -50.769531 13.722656 -51.113281 C 13.894531 -51.457031 14.066406 -51.628906 14.324219 -51.714844 C 14.492188 -51.886719 14.578125 -52.058594 14.664062 -52.144531 C 14.75 -52.316406 14.921875 -52.316406 14.921875 -52.144531 C 15.007812 -51.972656 15.007812 -51.886719 15.007812 -51.714844 C 18.011719 -54.375 21.957031 -56.175781 25.984375 -56.175781 C 26.5 -56.175781 26.84375 -56.261719 27.273438 -56.515625 C 27.445312 -56.601562 27.703125 -56.601562 27.785156 -56.515625 C 28.128906 -56.261719 28.644531 -56.261719 28.988281 -56.261719 C 33.277344 -56.261719 35.503906 -55.574219 39.195312 -53.34375 C 39.964844 -52.65625 40.308594 -51.800781 40.652344 -50.769531 C 41.25 -48.96875 40.996094 -47.082031 40.394531 -45.367188 C 40.050781 -43.910156 39.621094 -42.539062 38.765625 -41.335938 C 38.507812 -40.996094 38.25 -40.652344 38.335938 -40.136719 C 38.507812 -40.222656 38.679688 -40.308594 38.9375 -40.394531 C 38.9375 -39.792969 38.25 -37.820312 37.90625 -37.820312 C 37.222656 -37.5625 37.050781 -36.964844 36.792969 -36.191406 C 36.449219 -35.335938 35.761719 -34.5625 34.820312 -34.132812 C 33.960938 -33.617188 32.933594 -33.191406 31.988281 -32.933594 C 31.902344 -32.933594 31.816406 -32.847656 31.816406 -32.847656 C 31.644531 -32.847656 31.730469 -33.191406 31.644531 -33.363281 C 30.445312 -32.761719 29.160156 -32.332031 28.042969 -31.644531 C 27.703125 -31.476562 27.445312 -31.304688 27.359375 -30.875 C 27.617188 -30.960938 27.871094 -31.046875 28.042969 -31.21875 C 28.300781 -31.21875 28.472656 -31.304688 28.644531 -31.304688 Z M 5.746094 -16.808594 C 6.089844 -17.582031 5.917969 -18.523438 6.089844 -19.46875 C 7.976562 -19.46875 9.519531 -18.78125 10.890625 -17.496094 C 9.175781 -13.035156 7.71875 -8.492188 6.347656 -3.945312 C 6.261719 -3.6875 6.175781 -3.429688 6.003906 -3.171875 C 6.003906 -3.085938 5.917969 -3.085938 5.746094 -3 L 5.746094 -15.953125 C 5.746094 -16.210938 5.660156 -16.550781 5.746094 -16.808594 Z M 27.359375 -29.160156 C 27.359375 -28.988281 27.1875 -28.902344 27.015625 -28.816406 C 26.84375 -28.300781 26.5 -27.957031 25.984375 -27.785156 C 24.441406 -27.273438 22.984375 -26.5 21.699219 -25.558594 C 21.441406 -25.300781 21.011719 -25.300781 20.667969 -25.128906 C 19.984375 -24.785156 19.210938 -24.441406 18.523438 -23.929688 C 18.4375 -23.929688 18.183594 -24.011719 18.097656 -24.011719 C 18.011719 -24.183594 18.011719 -24.441406 18.097656 -24.527344 C 18.183594 -24.699219 18.4375 -24.871094 18.523438 -24.871094 C 19.8125 -25.214844 20.839844 -25.984375 21.957031 -26.5 C 23.070312 -27.1875 24.269531 -27.617188 25.386719 -28.300781 C 25.898438 -28.558594 26.242188 -28.902344 26.671875 -28.902344 C 26.757812 -28.902344 26.929688 -28.816406 27.015625 -28.816406 C 27.101562 -29.074219 27.1875 -29.160156 27.359375 -29.160156 Z M 17.667969 -30.703125 C 17.925781 -31.046875 18.183594 -31.5625 18.695312 -31.644531 C 18.867188 -32.417969 19.210938 -33.277344 19.726562 -33.960938 L 19.898438 -34.046875 C 19.898438 -33.960938 19.984375 -33.789062 19.984375 -33.703125 C 19.984375 -33.53125 19.984375 -33.363281 19.898438 -33.191406 C 19.640625 -32.847656 19.382812 -32.332031 19.296875 -31.902344 C 19.210938 -31.644531 18.867188 -31.730469 18.695312 -31.644531 C 18.78125 -31.476562 18.953125 -31.304688 18.867188 -31.046875 C 18.867188 -30.789062 18.695312 -30.445312 18.523438 -30.359375 C 18.097656 -30.101562 17.839844 -29.929688 17.582031 -29.503906 C 17.238281 -28.988281 17.410156 -28.300781 17.152344 -27.871094 C 16.894531 -27.445312 16.292969 -27.015625 16.292969 -26.414062 C 16.292969 -26.070312 15.953125 -25.898438 15.78125 -25.558594 C 15.695312 -25.558594 15.523438 -25.472656 15.4375 -25.472656 C 15.4375 -25.558594 15.351562 -25.816406 15.351562 -25.816406 C 15.695312 -26.414062 15.867188 -27.1875 16.292969 -27.617188 C 16.550781 -27.785156 16.550781 -28.128906 16.636719 -28.300781 C 16.980469 -29.160156 17.324219 -30.015625 17.667969 -30.703125 Z M 11.234375 -22.554688 C 10.207031 -22.296875 9.347656 -21.871094 8.320312 -21.871094 C 8.234375 -21.871094 8.148438 -21.871094 8.0625 -21.871094 C 7.804688 -21.871094 7.460938 -21.871094 7.203125 -21.957031 L 7.203125 -22.210938 C 7.546875 -22.46875 7.804688 -22.46875 8.234375 -22.46875 C 9.261719 -22.46875 10.207031 -22.8125 11.234375 -22.898438 C 11.40625 -22.984375 11.578125 -23.15625 11.664062 -23.15625 C 11.75 -23.15625 11.835938 -23.15625 11.835938 -22.984375 C 11.921875 -22.726562 11.578125 -22.554688 11.234375 -22.554688 Z M 23.929688 -28.472656 C 23.84375 -28.214844 23.757812 -28.042969 23.585938 -27.957031 C 22.898438 -27.617188 22.296875 -27.1875 21.527344 -26.84375 C 20.839844 -26.585938 20.152344 -26.242188 19.46875 -25.984375 C 19.382812 -25.898438 19.210938 -25.644531 19.125 -25.984375 C 19.125 -26.070312 19.210938 -26.242188 19.210938 -26.242188 C 20.753906 -26.929688 22.296875 -27.703125 23.929688 -28.472656 Z M 33.875 -35.417969 C 32.933594 -34.90625 32.332031 -34.304688 31.730469 -33.449219 C 31.902344 -33.449219 32.074219 -33.449219 32.160156 -33.449219 C 32.332031 -33.449219 32.503906 -33.449219 32.675781 -33.703125 C 32.933594 -34.21875 33.53125 -34.476562 33.875 -34.90625 C 33.960938 -34.992188 34.046875 -35.25 33.875 -35.417969 Z M 11.921875 -22.125 C 12.007812 -22.382812 12.265625 -22.46875 12.519531 -22.46875 C 12.605469 -22.46875 12.777344 -22.46875 12.863281 -22.382812 L 12.863281 -22.125 C 12.691406 -21.957031 12.519531 -21.871094 12.265625 -21.871094 C 12.179688 -21.871094 12.09375 -21.871094 12.007812 -21.871094 C 11.835938 -21.957031 11.835938 -22.039062 11.921875 -22.125 Z M 12.519531 -23.5 C 12.777344 -23.585938 13.121094 -23.757812 13.378906 -23.84375 L 13.464844 -23.757812 L 13.464844 -23.5 C 13.207031 -23.328125 13.035156 -23.242188 12.691406 -23.242188 C 12.519531 -23.328125 12.519531 -23.414062 12.519531 -23.5 Z M 36.621094 -38.421875 C 36.363281 -38.25 36.363281 -37.992188 36.363281 -37.648438 C 36.621094 -37.648438 36.792969 -37.992188 36.964844 -38.25 C 36.964844 -38.25 36.878906 -38.421875 36.878906 -38.507812 C 36.792969 -38.507812 36.707031 -38.507812 36.621094 -38.421875 Z M 14.324219 -51.714844 C 14.492188 -51.457031 14.578125 -51.371094 14.664062 -51.371094 C 14.75 -51.371094 14.835938 -51.457031 15.007812 -51.714844 Z M 24.011719 -28.558594 C 24.097656 -28.816406 24.183594 -28.816406 24.355469 -28.816406 C 24.441406 -28.816406 24.527344 -28.816406 24.613281 -28.816406 C 24.527344 -28.558594 24.441406 -28.558594 24.269531 -28.558594 C 24.183594 -28.558594 24.097656 -28.558594 24.011719 -28.558594 Z M 29.246094 -31.476562 C 29.160156 -31.476562 29.160156 -31.390625 29.074219 -31.390625 L 28.730469 -31.390625 C 28.816406 -31.476562 28.902344 -31.5625 28.988281 -31.644531 C 28.988281 -31.644531 29.160156 -31.5625 29.246094 -31.476562 Z M 34.992188 -36.191406 C 34.820312 -36.191406 34.734375 -36.019531 34.734375 -35.847656 C 34.90625 -35.933594 34.992188 -36.019531 34.992188 -36.191406 Z M 36.363281 -37.5625 C 36.191406 -37.5625 36.019531 -37.476562 36.019531 -37.308594 C 36.191406 -37.308594 36.277344 -37.390625 36.363281 -37.5625 Z M 29.074219 -30.015625 C 28.988281 -30.015625 28.816406 -29.929688 28.644531 -29.929688 C 28.816406 -30.015625 28.902344 -30.101562 28.988281 -30.1875 C 28.988281 -30.1875 29.160156 -30.101562 29.246094 -30.101562 C 29.160156 -30.101562 29.160156 -30.015625 29.074219 -30.015625 Z M 11.234375 -21.785156 L 11.234375 -21.527344 L 11.148438 -21.613281 Z M 19.898438 -30.53125 L 19.898438 -30.359375 L 19.8125 -30.359375 Z M 12.519531 -15.09375 L 12.605469 -14.835938 L 12.519531 -15.007812 Z M 26.15625 -29.589844 L 26.15625 -29.671875 L 26.242188 -29.671875 Z M 38.335938 -40.136719 C 38.335938 -40.136719 38.25 -40.050781 38.25 -40.050781 C 38.335938 -40.050781 38.335938 -40.050781 38.335938 -40.136719 Z M 25.386719 -29.332031 L 25.472656 -29.417969 L 25.472656 -29.332031 Z M 18.183594 -27.703125 L 18.183594 -27.617188 L 18.097656 -27.617188 Z M 14.835938 -19.8125 L 14.75 -19.898438 L 14.835938 -19.898438 Z M 41.164062 -39.964844 L 41.25 -39.964844 L 41.25 -39.878906 Z M 40.136719 -38.59375 L 40.136719 -38.507812 L 40.050781 -38.507812 Z M 9.777344 -21.269531 L 9.863281 -21.269531 L 9.863281 -21.183594 Z M 34.734375 -35.847656 C 34.648438 -35.847656 34.648438 -35.847656 34.648438 -35.847656 Z M 35.25 -33.277344 L 35.078125 -33.277344 Z M 38.851562 11.492188 L 38.851562 11.320312 Z M 10.546875 -9.691406 L 10.378906 -9.691406 Z M 10.546875 -9.691406 "/></g></g></g><g fill="#ffffff" fill-opacity="1"><g transform="translate(131.770721, 200.427364)"><g/></g></g><g fill="#ffffff" fill-opacity="1"><g transform="translate(156.811983, 200.427364)"><g><path d="M 13.207031 4.460938 C 12.863281 4.460938 12.605469 4.546875 12.351562 4.800781 C 12.007812 5.402344 11.492188 5.746094 10.890625 5.917969 C 10.890625 6.003906 10.804688 6.089844 10.804688 6.261719 C 10.632812 5.917969 10.890625 6.003906 10.976562 6.003906 C 10.976562 5.832031 10.890625 5.488281 10.976562 5.402344 C 11.578125 4.800781 12.09375 4.117188 12.949219 3.859375 C 13.035156 3.6875 13.121094 3.859375 13.207031 3.859375 C 13.292969 3.6875 13.292969 3.601562 13.378906 3.429688 C 13.550781 3.6875 13.292969 3.6875 13.207031 3.6875 C 13.207031 4.03125 13.207031 4.289062 13.207031 4.460938 C 13.808594 4.203125 14.152344 3.6875 14.492188 3.085938 C 14.664062 2.914062 14.664062 2.746094 14.921875 2.660156 C 15.867188 2.058594 16.210938 1.113281 16.636719 0.171875 C 16.722656 -0.0859375 16.808594 -0.257812 16.980469 -0.429688 C 17.496094 -0.6875 17.925781 -1.199219 18.265625 -1.800781 C 18.523438 -2.058594 18.695312 -2.402344 18.78125 -2.660156 C 18.78125 -2.746094 18.609375 -3 18.523438 -3.085938 C 18.4375 -3.257812 18.351562 -3.171875 18.265625 -3.085938 C 18.097656 -2.402344 17.410156 -1.457031 16.636719 -1.457031 C 16.550781 -1.457031 16.464844 -1.628906 16.464844 -1.800781 C 16.636719 -2.230469 16.722656 -2.746094 17.324219 -3 L 17.238281 -2.832031 C 17.324219 -3.257812 17.496094 -3.429688 17.753906 -3.515625 C 18.011719 -3.773438 18.183594 -3.945312 18.351562 -4.289062 C 18.523438 -4.71875 18.867188 -5.144531 19.125 -5.660156 C 19.210938 -5.832031 19.210938 -6.003906 19.125 -6.175781 C 18.78125 -6.859375 19.125 -7.117188 19.554688 -7.460938 C 19.640625 -7.460938 19.640625 -7.632812 19.726562 -7.632812 C 19.8125 -7.71875 19.898438 -7.546875 19.898438 -7.460938 C 20.070312 -7.460938 20.238281 -7.632812 20.152344 -7.804688 C 19.984375 -8.234375 20.070312 -8.578125 20.238281 -8.917969 C 20.324219 -9.003906 20.324219 -9.175781 20.410156 -9.261719 C 21.355469 -10.292969 21.785156 -11.578125 22.46875 -12.605469 C 22.726562 -12.949219 22.640625 -13.378906 22.640625 -13.722656 C 22.554688 -13.722656 22.382812 -13.722656 22.296875 -13.722656 C 22.210938 -13.636719 22.210938 -13.550781 22.125 -13.464844 C 21.957031 -13.722656 22.210938 -13.636719 22.296875 -13.722656 C 22.210938 -13.980469 22.039062 -14.152344 21.785156 -14.238281 C 21.613281 -13.808594 21.441406 -13.464844 21.269531 -12.949219 C 21.355469 -12.949219 21.527344 -12.949219 21.613281 -12.949219 C 21.785156 -12.949219 21.957031 -12.863281 21.785156 -12.605469 C 21.613281 -12.351562 21.699219 -11.921875 21.269531 -11.835938 C 21.269531 -11.75 21.183594 -11.664062 21.183594 -11.578125 C 21.011719 -11.835938 21.269531 -11.75 21.355469 -11.835938 C 21.355469 -12.265625 21.355469 -12.605469 21.355469 -12.949219 C 20.667969 -12.519531 20.070312 -11.835938 19.726562 -11.148438 C 18.097656 -7.976562 16.125 -4.71875 13.894531 -1.972656 C 12.519531 -0.0859375 11.234375 1.714844 9.691406 3.34375 C 8.917969 4.289062 7.289062 6.003906 6.003906 6.003906 C 5.058594 6.003906 4.546875 5.746094 4.289062 4.71875 C 3.6875 2.914062 3.257812 0.945312 3.257812 -0.945312 C 3.257812 -1.628906 3.085938 -2.316406 3.171875 -3 C 3.257812 -3.6875 3.257812 -4.375 3.257812 -4.972656 C 3.171875 -5.832031 3.6875 -6.347656 3.601562 -7.117188 C 3.515625 -7.804688 3.773438 -8.492188 3.945312 -9.003906 C 4.03125 -9.347656 4.203125 -9.691406 4.203125 -9.949219 C 4.289062 -10.546875 4.117188 -11.234375 4.117188 -11.75 C 4.117188 -11.835938 5.144531 -16.210938 5.230469 -16.292969 C 5.402344 -16.980469 5.660156 -17.582031 5.746094 -18.183594 C 5.832031 -19.125 6.089844 -19.898438 6.347656 -20.753906 C 6.519531 -21.269531 6.773438 -21.699219 6.945312 -22.210938 C 7.03125 -22.554688 6.945312 -22.8125 6.773438 -22.898438 C 6.433594 -23.15625 6.347656 -23.242188 6.859375 -23.328125 C 6.945312 -23.328125 7.203125 -23.414062 7.117188 -23.585938 C 6.859375 -24.269531 7.289062 -24.613281 7.460938 -25.128906 C 7.632812 -25.472656 7.890625 -25.730469 7.976562 -26.070312 C 7.976562 -26.929688 8.320312 -27.785156 8.578125 -28.472656 C 8.917969 -29.332031 8.660156 -29.929688 8.832031 -30.617188 C 9.433594 -32.589844 10.378906 -34.5625 10.71875 -36.792969 C 10.71875 -36.878906 10.804688 -36.964844 10.890625 -37.050781 C 11.492188 -38.078125 11.664062 -39.195312 11.921875 -40.480469 C 12.007812 -40.910156 12.09375 -41.164062 12.351562 -41.421875 C 12.519531 -41.59375 12.605469 -41.9375 12.605469 -42.28125 C 12.605469 -42.710938 12.691406 -42.882812 13.035156 -43.054688 C 13.292969 -43.308594 13.464844 -43.480469 13.550781 -43.824219 C 13.636719 -44.425781 13.980469 -44.941406 13.894531 -45.539062 C 13.894531 -45.96875 13.980469 -46.3125 14.152344 -46.484375 C 14.664062 -47.597656 15.007812 -48.628906 15.523438 -49.65625 C 16.550781 -51.628906 17.066406 -53.859375 17.839844 -55.917969 C 18.011719 -56.261719 18.011719 -56.601562 17.839844 -57.03125 C 17.667969 -57.289062 17.496094 -57.71875 17.410156 -57.976562 C 17.238281 -58.574219 16.808594 -58.917969 16.378906 -59.175781 C 15.867188 -59.433594 15.265625 -59.433594 14.664062 -59.433594 C 14.238281 -59.347656 13.980469 -59.089844 13.894531 -58.574219 C 13.808594 -58.234375 13.636719 -57.890625 13.550781 -57.632812 C 13.121094 -56.261719 12.519531 -55.058594 12.519531 -53.515625 C 12.519531 -52.914062 12.179688 -52.402344 12.007812 -51.800781 C 11.921875 -51.457031 11.664062 -51.113281 11.578125 -50.6875 C 11.148438 -48.800781 10.464844 -46.910156 9.863281 -45.023438 C 8.148438 -40.308594 6.519531 -35.503906 5.488281 -30.617188 C 5.230469 -29.671875 4.886719 -28.644531 4.546875 -27.703125 C 4.289062 -26.5 3.601562 -23.757812 3.085938 -22.640625 C 2.832031 -22.039062 3.085938 -21.269531 2.746094 -20.667969 C 2.488281 -18.867188 1.800781 -16.980469 1.457031 -15.179688 C 1.027344 -13.636719 0.945312 -11.921875 0.6875 -10.292969 C 0.515625 -9.863281 0.6875 -9.175781 0.601562 -8.660156 C 0.171875 -7.460938 0.34375 -6.089844 0.257812 -4.800781 C 0.257812 -4.460938 0.257812 -3.945312 0.0859375 -3.515625 C 0 -3.429688 0 -3.171875 0.0859375 -3.085938 C 0.34375 -2.574219 0.257812 -2.144531 0.257812 -1.628906 C 0.34375 -0.945312 0.34375 -0.257812 0.601562 0.429688 C 0.773438 0.945312 0.859375 1.542969 0.945312 2.144531 C 1.371094 4.375 2.574219 6.003906 4.117188 7.289062 C 5.230469 8.234375 5.230469 8.234375 6.605469 8.234375 C 7.03125 8.234375 7.460938 8.234375 7.976562 8.234375 C 8.234375 8.234375 8.492188 8.234375 8.746094 8.148438 C 10.546875 7.289062 12.351562 6.605469 13.207031 4.460938 Z M 20.667969 -10.71875 C 20.667969 -10.804688 20.753906 -10.976562 20.753906 -11.0625 C 21.011719 -10.71875 20.753906 -10.804688 20.667969 -10.71875 C 20.667969 -10.121094 20.410156 -9.863281 19.898438 -9.691406 C 19.898438 -9.519531 19.898438 -9.261719 19.8125 -9.175781 C 19.8125 -9.003906 19.8125 -9.003906 19.726562 -8.917969 C 19.726562 -9.003906 19.640625 -9.261719 19.640625 -9.261719 C 19.726562 -9.519531 19.8125 -9.605469 19.898438 -9.691406 C 19.898438 -10.121094 20.070312 -10.464844 20.667969 -10.71875 Z M 17.582031 -6.003906 C 17.582031 -5.917969 17.496094 -5.832031 17.496094 -5.746094 C 17.238281 -5.917969 17.582031 -5.917969 17.582031 -5.917969 C 17.582031 -6.261719 17.667969 -6.605469 18.011719 -6.859375 C 18.183594 -6.691406 18.183594 -6.691406 18.183594 -6.605469 C 18.183594 -6.261719 17.925781 -6.089844 17.582031 -6.003906 Z M 15.609375 -0.6875 C 15.695312 -0.859375 15.78125 -1.027344 15.953125 -1.027344 C 16.039062 -1.027344 16.125 -0.945312 16.125 -0.859375 C 15.953125 -0.773438 15.78125 -0.773438 15.609375 -0.773438 C 15.523438 -0.601562 15.523438 -0.429688 15.4375 -0.257812 C 15.179688 -0.171875 15.09375 0 14.921875 -0.171875 C 14.835938 -0.257812 14.664062 -0.515625 14.664062 -0.601562 C 14.75 -0.773438 14.921875 -0.945312 15.09375 -0.945312 C 15.265625 -0.859375 15.523438 -0.773438 15.609375 -0.6875 Z M 2.488281 -15.007812 C 2.660156 -13.980469 2.660156 -13.464844 2.488281 -12.863281 C 2.488281 -12.691406 2.402344 -12.605469 2.316406 -12.605469 C 2.230469 -12.605469 2.144531 -12.691406 2.058594 -12.863281 C 1.972656 -12.949219 2.058594 -12.949219 2.058594 -13.035156 C 2.144531 -13.636719 2.316406 -14.066406 2.488281 -15.007812 Z M 6.003906 -27.273438 C 5.917969 -27.1875 5.917969 -27.015625 5.917969 -26.929688 C 5.832031 -26.757812 5.660156 -26.757812 5.574219 -26.757812 C 5.402344 -26.84375 5.402344 -27.015625 5.402344 -27.1875 C 5.488281 -27.273438 5.574219 -27.445312 5.574219 -27.53125 C 5.660156 -27.703125 5.746094 -27.703125 5.832031 -27.703125 C 5.917969 -27.53125 5.917969 -27.445312 6.003906 -27.273438 Z M 4.632812 -22.898438 C 4.71875 -22.898438 4.71875 -22.898438 4.800781 -22.8125 C 4.800781 -22.726562 4.546875 -22.296875 4.375 -22.46875 C 4.375 -22.46875 4.289062 -22.640625 4.289062 -22.726562 C 4.375 -22.898438 4.460938 -22.984375 4.632812 -22.898438 Z M 2.144531 -11.320312 C 2.058594 -11.148438 1.972656 -11.0625 1.886719 -10.976562 C 1.800781 -10.976562 1.714844 -11.0625 1.714844 -11.148438 C 1.628906 -11.320312 1.800781 -11.40625 1.972656 -11.40625 C 2.058594 -11.40625 2.058594 -11.320312 2.144531 -11.320312 Z M 3.085938 -16.125 C 3.085938 -16.125 3 -16.039062 2.914062 -16.039062 C 2.914062 -16.039062 2.832031 -16.125 2.832031 -16.210938 C 2.914062 -16.210938 3 -16.210938 3.085938 -16.125 Z M 5.574219 -25.472656 C 5.574219 -25.472656 5.488281 -25.386719 5.402344 -25.386719 C 5.402344 -25.472656 5.402344 -25.644531 5.402344 -25.730469 C 5.574219 -25.730469 5.574219 -25.644531 5.574219 -25.472656 Z M 15.867188 0.34375 C 15.867188 0.34375 15.867188 0.257812 15.78125 0.171875 C 15.867188 0.171875 15.953125 0.171875 16.039062 0.171875 C 16.125 0.171875 16.125 0.257812 16.210938 0.257812 C 16.125 0.34375 15.953125 0.34375 15.867188 0.34375 Z M 4.03125 -21.699219 L 4.117188 -21.699219 L 4.117188 -21.613281 Z M 18.78125 -7.546875 L 18.695312 -7.546875 L 18.78125 -7.632812 Z M 3.171875 -17.324219 L 3.085938 -17.152344 L 3 -17.324219 Z M 16.722656 -4.546875 L 16.722656 -4.71875 Z M 7.71875 -34.390625 L 7.804688 -34.304688 L 7.804688 -34.21875 Z M 8.746094 -38.507812 L 8.832031 -38.507812 L 8.746094 -38.421875 Z M 6.433594 -29.503906 L 6.433594 -29.589844 L 6.519531 -29.503906 Z M 28.644531 -24.785156 C 28.730469 -24.785156 28.816406 -24.699219 28.902344 -24.613281 C 28.902344 -24.441406 28.988281 -24.183594 28.988281 -24.011719 C 28.902344 -23.585938 28.816406 -23.414062 28.816406 -23.15625 C 28.816406 -23.15625 28.902344 -23.070312 28.988281 -23.070312 C 29.074219 -23.070312 29.160156 -23.070312 29.160156 -23.070312 C 29.246094 -24.097656 30.101562 -24.613281 30.015625 -25.644531 C 30.015625 -25.898438 30.273438 -26.242188 30.445312 -26.585938 C 30.703125 -26.5 30.875 -26.242188 30.789062 -25.984375 C 30.617188 -25.300781 30.359375 -24.699219 30.53125 -24.011719 C 30.617188 -23.84375 30.445312 -23.414062 30.359375 -23.242188 C 30.015625 -22.898438 29.929688 -22.46875 29.929688 -21.957031 C 29.929688 -21.527344 30.015625 -21.011719 29.929688 -20.753906 C 29.503906 -19.898438 29.671875 -18.953125 29.332031 -17.925781 C 29.160156 -17.496094 28.988281 -16.808594 29.246094 -16.210938 C 29.332031 -15.953125 29.246094 -15.523438 29.160156 -15.351562 C 28.988281 -15.007812 28.988281 -14.492188 28.988281 -14.152344 C 28.988281 -13.207031 28.816406 -12.09375 28.988281 -11.148438 C 29.160156 -9.949219 28.300781 -8.917969 28.902344 -7.804688 C 28.902344 -7.804688 28.902344 -7.632812 28.816406 -7.546875 C 28.472656 -6.691406 28.644531 -5.832031 28.300781 -4.972656 C 28.214844 -4.71875 28.300781 -4.375 28.386719 -4.03125 C 28.644531 -3.429688 28.558594 -2.746094 28.644531 -2.144531 C 28.816406 -1.199219 28.988281 -0.257812 29.671875 0.34375 C 30.101562 0.6875 30.53125 1.199219 30.703125 1.714844 C 30.875 2.058594 31.21875 2.230469 31.390625 2.574219 C 31.5625 2.660156 31.730469 2.746094 31.902344 2.746094 C 32.074219 2.746094 32.246094 2.660156 32.332031 2.574219 C 32.589844 2.488281 32.589844 2.144531 32.589844 1.972656 C 32.761719 0.257812 32.332031 -1.457031 32.160156 -3.171875 C 32.074219 -3.429688 31.902344 -3.6875 32.074219 -3.859375 C 32.246094 -4.375 32.160156 -4.71875 31.988281 -5.058594 C 31.730469 -5.488281 31.730469 -5.832031 31.902344 -6.261719 C 31.988281 -6.691406 31.902344 -7.460938 31.902344 -7.890625 C 31.988281 -8.40625 31.816406 -8.917969 31.988281 -9.519531 C 32.417969 -10.804688 32.246094 -12.265625 32.246094 -13.636719 C 32.246094 -13.894531 32.246094 -14.238281 32.332031 -14.492188 C 32.503906 -14.835938 32.847656 -18.265625 32.933594 -18.953125 C 33.019531 -19.726562 33.105469 -20.753906 33.363281 -21.613281 C 33.703125 -23.070312 33.703125 -24.613281 34.21875 -26.070312 C 34.132812 -27.015625 34.476562 -27.871094 34.648438 -28.730469 C 34.90625 -29.671875 34.992188 -30.53125 35.503906 -31.304688 C 35.761719 -31.816406 35.933594 -32.332031 35.933594 -33.019531 C 36.019531 -33.449219 36.191406 -33.875 36.363281 -34.304688 C 36.792969 -35.847656 37.390625 -37.390625 37.820312 -38.9375 C 37.992188 -39.621094 38.25 -40.308594 38.421875 -41.082031 C 38.59375 -41.679688 38.851562 -42.453125 39.109375 -43.054688 C 39.363281 -43.566406 39.277344 -44.167969 39.535156 -44.769531 C 39.878906 -45.453125 40.222656 -46.398438 40.480469 -47.253906 C 40.738281 -48.113281 40.996094 -48.96875 40.910156 -50 C 40.910156 -50.601562 40.652344 -51.371094 40.222656 -51.714844 C 39.621094 -52.402344 38.851562 -52.742188 38.078125 -52.914062 C 37.992188 -53 37.820312 -53 37.734375 -53 C 37.476562 -53 37.136719 -52.742188 37.050781 -52.402344 C 36.878906 -52.058594 36.878906 -51.800781 36.707031 -51.542969 C 36.105469 -50.257812 35.417969 -48.882812 34.992188 -47.597656 C 34.304688 -45.367188 33.53125 -43.308594 32.675781 -41.25 C 32.246094 -40.308594 31.988281 -39.195312 31.644531 -38.164062 C 31.644531 -38.164062 31.730469 -37.90625 31.730469 -37.90625 C 31.816406 -38.078125 31.902344 -38.078125 31.988281 -38.164062 C 32.074219 -38.421875 32.246094 -38.59375 32.246094 -38.765625 C 32.332031 -39.023438 32.332031 -39.195312 32.589844 -39.363281 C 32.589844 -39.535156 32.503906 -39.792969 32.589844 -39.964844 C 33.277344 -41.082031 33.449219 -42.367188 34.132812 -43.308594 C 34.21875 -43.652344 34.21875 -44.082031 34.5625 -44.167969 C 34.5625 -44.253906 34.648438 -44.425781 34.648438 -44.683594 C 34.734375 -44.683594 34.820312 -44.597656 34.820312 -44.425781 C 34.820312 -44.253906 34.734375 -44.167969 34.5625 -44.167969 C 34.5625 -43.824219 34.648438 -43.480469 34.21875 -43.394531 C 34.21875 -43.222656 34.304688 -42.96875 34.21875 -42.882812 C 33.875 -41.765625 33.449219 -40.824219 33.105469 -39.707031 C 33.019531 -39.535156 32.761719 -39.449219 32.589844 -39.363281 C 32.675781 -38.421875 32.589844 -37.5625 31.988281 -36.792969 C 31.476562 -36.019531 31.21875 -35.164062 31.132812 -34.304688 C 31.132812 -34.21875 31.21875 -34.21875 31.21875 -34.132812 C 31.304688 -34.132812 31.476562 -34.132812 31.5625 -34.132812 C 31.644531 -34.132812 31.730469 -33.960938 31.816406 -33.875 C 31.730469 -33.789062 31.5625 -33.617188 31.476562 -33.53125 C 31.476562 -33.53125 31.390625 -33.53125 31.304688 -33.53125 C 31.21875 -33.617188 31.046875 -33.703125 30.960938 -33.703125 C 30.789062 -33.703125 30.703125 -33.53125 30.617188 -33.277344 C 30.359375 -32.589844 29.84375 -30.875 29.332031 -30.445312 C 29.246094 -30.101562 29.332031 -29.757812 28.988281 -29.671875 C 28.988281 -29.417969 28.988281 -28.988281 28.644531 -28.816406 L 28.644531 -28.988281 C 28.644531 -28.472656 28.644531 -28.128906 28.472656 -27.785156 C 28.128906 -27.1875 27.957031 -26.671875 27.703125 -26.070312 C 27.703125 -25.984375 27.703125 -25.898438 27.785156 -25.816406 C 27.871094 -25.644531 28.042969 -25.644531 28.214844 -25.730469 C 28.816406 -26.242188 29.417969 -26.84375 29.929688 -27.445312 C 29.929688 -27.53125 29.929688 -27.785156 29.929688 -27.871094 C 29.84375 -27.871094 29.671875 -27.871094 29.503906 -27.871094 C 29.332031 -27.871094 29.246094 -27.871094 29.074219 -28.042969 C 29.246094 -28.128906 29.417969 -28.214844 29.671875 -28.386719 C 29.84375 -28.472656 29.929688 -28.300781 29.929688 -28.128906 C 29.929688 -28.042969 29.929688 -27.957031 29.929688 -27.871094 C 30.015625 -27.785156 30.101562 -27.785156 30.1875 -27.703125 C 30.101562 -27.53125 30.015625 -27.53125 29.929688 -27.445312 C 30.015625 -26.671875 29.757812 -26.070312 29.332031 -25.472656 C 29.332031 -25.386719 29.160156 -25.300781 29.160156 -25.300781 C 28.988281 -25.386719 28.902344 -25.386719 28.816406 -25.386719 C 28.558594 -25.386719 28.644531 -25.042969 28.644531 -24.785156 Z M 30.617188 -31.5625 C 30.53125 -31.5625 30.53125 -31.390625 30.445312 -31.304688 C 30.273438 -31.5625 30.53125 -31.5625 30.617188 -31.5625 C 30.703125 -31.644531 30.703125 -31.730469 30.789062 -31.816406 C 30.960938 -31.5625 30.703125 -31.644531 30.617188 -31.5625 Z M 35.25 -46.054688 C 35.164062 -45.96875 35.164062 -45.625 35.164062 -45.453125 C 34.992188 -45.453125 34.992188 -45.539062 34.992188 -45.625 C 34.992188 -45.882812 35.078125 -46.054688 35.25 -46.054688 C 35.25 -46.140625 35.25 -46.3125 35.25 -46.398438 C 35.335938 -46.484375 35.335938 -46.484375 35.417969 -46.570312 C 35.417969 -46.484375 35.503906 -46.3125 35.417969 -46.226562 C 35.417969 -46.140625 35.335938 -46.140625 35.25 -46.054688 Z M 29.929688 -29.332031 C 29.929688 -29.160156 29.84375 -29.074219 29.84375 -29.074219 C 29.589844 -29.332031 29.84375 -29.332031 29.929688 -29.332031 C 30.015625 -29.589844 30.015625 -29.84375 30.015625 -30.101562 C 30.015625 -30.101562 30.101562 -30.273438 30.101562 -30.273438 C 30.1875 -30.273438 30.1875 -30.273438 30.1875 -30.101562 C 30.359375 -29.757812 30.359375 -29.503906 29.929688 -29.332031 Z M 34.734375 -36.792969 C 34.90625 -36.191406 34.90625 -35.933594 35.078125 -35.675781 C 35.164062 -35.335938 34.992188 -35.25 34.90625 -35.25 C 34.734375 -35.164062 34.5625 -34.992188 34.648438 -34.820312 C 35.078125 -34.304688 34.5625 -33.789062 34.820312 -33.277344 C 34.90625 -33.019531 34.734375 -32.675781 34.476562 -32.589844 C 34.304688 -32.589844 34.132812 -32.589844 34.046875 -32.417969 C 34.132812 -32.332031 34.21875 -32.246094 34.304688 -32.160156 C 34.476562 -32.074219 34.5625 -31.816406 34.390625 -31.644531 C 34.046875 -31.390625 33.789062 -31.21875 34.046875 -30.789062 C 34.132812 -30.53125 33.960938 -30.53125 33.875 -30.445312 C 33.277344 -30.101562 33.191406 -30.101562 33.277344 -29.589844 C 33.363281 -29.417969 33.53125 -29.074219 33.363281 -28.816406 C 33.191406 -28.558594 32.933594 -28.300781 32.589844 -28.300781 C 32.503906 -28.300781 32.417969 -28.386719 32.332031 -28.386719 C 32.246094 -29.074219 32.160156 -29.671875 32.589844 -30.101562 C 32.761719 -30.445312 32.933594 -30.703125 32.933594 -31.21875 C 32.847656 -31.988281 33.277344 -32.589844 33.449219 -33.449219 C 33.617188 -33.960938 33.875 -34.476562 33.960938 -35.164062 C 34.046875 -35.675781 34.390625 -36.019531 34.734375 -36.792969 Z M 33.449219 -27.101562 C 33.019531 -27.101562 32.332031 -27.015625 32.246094 -26.585938 C 32.246094 -26.070312 32.246094 -25.644531 32.503906 -25.128906 C 32.589844 -24.785156 32.675781 -24.441406 32.503906 -24.269531 C 32.074219 -23.84375 31.988281 -23.15625 31.730469 -22.640625 C 31.730469 -22.554688 31.5625 -22.46875 31.476562 -22.46875 C 31.476562 -22.46875 31.304688 -22.554688 31.304688 -22.640625 C 31.304688 -23.15625 30.875 -23.585938 31.304688 -24.183594 C 31.644531 -24.613281 31.5625 -25.214844 31.644531 -25.816406 C 31.644531 -26.15625 31.5625 -26.671875 31.730469 -27.015625 C 31.902344 -27.273438 31.988281 -27.785156 32.417969 -27.871094 C 32.847656 -27.871094 33.277344 -27.871094 33.449219 -27.101562 Z M 30.875 -13.808594 C 30.875 -13.722656 30.875 -13.550781 30.789062 -13.550781 C 30.617188 -13.378906 30.445312 -13.207031 30.1875 -13.121094 C 30.1875 -13.121094 30.015625 -13.207031 30.015625 -13.378906 C 30.015625 -13.636719 30.359375 -13.980469 30.617188 -13.980469 C 30.703125 -13.980469 30.789062 -13.894531 30.875 -13.808594 Z M 30.960938 -30.359375 C 31.046875 -30.273438 31.132812 -30.273438 31.21875 -30.101562 C 31.304688 -29.929688 31.132812 -29.589844 30.875 -29.503906 C 30.789062 -29.503906 30.703125 -29.503906 30.703125 -29.503906 C 30.703125 -29.671875 30.617188 -29.84375 30.617188 -29.929688 C 30.617188 -30.273438 30.789062 -30.359375 30.960938 -30.359375 Z M 31.476562 -21.699219 C 31.476562 -21.527344 31.21875 -21.269531 31.132812 -21.269531 C 31.046875 -21.269531 31.046875 -21.355469 31.046875 -21.441406 C 30.960938 -21.613281 31.132812 -21.785156 31.304688 -21.785156 C 31.390625 -21.785156 31.390625 -21.699219 31.476562 -21.699219 Z M 35.25 -37.648438 C 35.164062 -37.5625 35.25 -37.5625 35.164062 -37.476562 C 35.164062 -37.390625 35.078125 -37.390625 34.992188 -37.308594 C 34.992188 -37.390625 34.90625 -37.476562 34.90625 -37.5625 C 34.90625 -37.734375 34.90625 -37.90625 35.078125 -37.90625 C 35.164062 -37.820312 35.164062 -37.734375 35.25 -37.648438 Z M 31.988281 -34.820312 C 31.988281 -34.90625 32.074219 -34.992188 32.160156 -35.078125 C 32.246094 -34.992188 32.246094 -34.5625 32.074219 -34.648438 C 32.074219 -34.648438 31.988281 -34.648438 31.988281 -34.820312 Z M 32.847656 -25.898438 C 32.847656 -25.898438 32.761719 -25.816406 32.675781 -25.816406 C 32.675781 -25.898438 32.675781 -25.984375 32.675781 -26.070312 C 32.761719 -26.070312 32.847656 -25.984375 32.847656 -25.898438 Z M 35.675781 -47.339844 L 35.761719 -47.339844 L 35.675781 -47.253906 Z M 36.191406 -48.027344 L 36.105469 -48.027344 L 36.105469 -48.113281 Z M 32.847656 -36.964844 L 32.675781 -36.964844 Z M 24.957031 -14.066406 C 24.527344 -13.808594 24.097656 -13.550781 23.757812 -13.121094 C 23.84375 -12.863281 24.011719 -12.519531 23.757812 -12.179688 C 23.242188 -11.578125 22.8125 -11.148438 22.210938 -10.804688 C 22.039062 -10.71875 22.125 -10.464844 22.296875 -10.378906 C 22.382812 -10.292969 22.46875 -10.207031 22.554688 -10.121094 C 22.640625 -9.863281 22.726562 -9.777344 22.8125 -9.777344 C 22.898438 -9.777344 22.898438 -9.777344 22.984375 -9.863281 C 23.5 -10.546875 24.011719 -11.40625 24.527344 -12.179688 C 24.527344 -12.691406 24.871094 -13.035156 25.128906 -13.464844 C 25.128906 -13.636719 24.957031 -13.894531 24.957031 -14.066406 Z M 25.558594 -15.953125 C 25.730469 -16.210938 25.898438 -16.550781 26.15625 -16.636719 C 26.757812 -16.808594 26.929688 -17.410156 27.1875 -17.839844 C 27.359375 -18.097656 27.445312 -18.609375 27.1875 -18.78125 C 27.101562 -18.867188 27.015625 -18.867188 27.015625 -18.867188 C 26.757812 -18.867188 26.757812 -18.609375 26.585938 -18.4375 C 26.414062 -18.011719 26.15625 -17.839844 25.984375 -17.582031 C 25.730469 -17.152344 25.472656 -16.722656 25.300781 -16.292969 C 25.300781 -16.125 25.386719 -16.039062 25.730469 -15.953125 Z M 25.558594 -19.640625 C 25.816406 -19.640625 25.898438 -19.640625 25.984375 -19.640625 C 26.15625 -19.984375 26.328125 -20.410156 26.5 -20.753906 C 26.757812 -21.441406 27.101562 -21.527344 27.703125 -21.527344 L 27.617188 -21.441406 C 27.53125 -22.039062 27.53125 -22.125 27.273438 -22.125 C 27.273438 -22.125 27.1875 -22.125 27.015625 -22.125 C 26.84375 -21.957031 26.757812 -21.957031 26.671875 -21.957031 C 26.5 -21.957031 26.328125 -22.210938 26.15625 -22.039062 C 25.816406 -21.785156 26.242188 -21.527344 26.242188 -21.269531 C 26.15625 -20.925781 25.984375 -20.753906 25.898438 -20.496094 C 25.730469 -20.238281 25.558594 -19.898438 25.730469 -19.554688 Z M 28.644531 -24.785156 C 28.300781 -24.785156 28.042969 -24.785156 27.703125 -24.785156 C 27.359375 -24.699219 27.101562 -24.527344 27.015625 -24.183594 C 27.015625 -23.929688 27.015625 -23.5 27.101562 -23.242188 C 27.101562 -23.15625 27.1875 -23.070312 27.273438 -23.070312 C 27.359375 -23.070312 27.53125 -23.15625 27.53125 -23.15625 C 27.617188 -23.84375 27.871094 -24.097656 28.300781 -24.269531 C 28.472656 -24.355469 28.558594 -24.613281 28.644531 -24.785156 Z M 19.898438 -5.144531 C 19.554688 -4.972656 19.296875 -4.632812 19.039062 -4.375 C 18.867188 -4.117188 18.867188 -3.945312 18.953125 -3.6875 C 18.953125 -3.515625 19.039062 -3.429688 19.125 -3.429688 C 19.210938 -3.34375 19.382812 -3.429688 19.46875 -3.429688 C 19.8125 -3.945312 19.984375 -4.546875 19.898438 -5.144531 Z M 27.703125 -21.527344 C 27.703125 -21.355469 27.703125 -21.183594 27.785156 -20.925781 C 27.785156 -20.925781 27.957031 -20.839844 28.042969 -20.839844 C 28.386719 -21.011719 28.730469 -21.785156 28.558594 -22.46875 C 28.558594 -22.46875 28.386719 -22.554688 28.300781 -22.554688 C 28.214844 -22.554688 28.128906 -22.554688 28.042969 -22.46875 C 27.957031 -22.125 28.042969 -21.613281 27.617188 -21.441406 Z M 28.644531 -28.816406 C 28.644531 -29.332031 28.644531 -29.589844 28.988281 -29.671875 C 28.988281 -29.929688 28.988281 -30.359375 29.332031 -30.445312 C 29.246094 -30.789062 29.246094 -31.21875 29.246094 -31.5625 L 29.332031 -31.5625 C 28.730469 -30.789062 28.300781 -29.929688 28.300781 -28.816406 L 28.300781 -28.988281 C 28.386719 -28.988281 28.558594 -28.988281 28.644531 -28.988281 Z M 20.667969 -6.261719 C 20.839844 -6.347656 21.011719 -6.519531 21.183594 -6.605469 C 21.613281 -6.691406 21.613281 -7.117188 21.785156 -7.460938 C 21.871094 -7.546875 21.871094 -7.632812 21.785156 -7.71875 C 21.699219 -7.804688 21.699219 -7.890625 21.613281 -7.890625 C 21.527344 -7.976562 21.441406 -7.976562 21.441406 -7.976562 C 21.269531 -7.375 20.582031 -7.03125 20.667969 -6.261719 Z M 23.242188 -14.921875 C 24.011719 -15.179688 24.183594 -15.953125 24.269531 -16.722656 C 23.585938 -16.292969 23.414062 -15.523438 23.328125 -14.835938 Z M 25.730469 -15.523438 C 25.042969 -15.4375 24.957031 -15.4375 24.957031 -15.007812 C 24.957031 -14.75 24.957031 -14.324219 24.957031 -14.066406 C 25.558594 -14.152344 25.558594 -14.152344 25.472656 -14.835938 C 25.300781 -15.179688 25.558594 -15.265625 25.558594 -15.523438 Z M 25.730469 -19.554688 C 25.472656 -19.554688 25.214844 -19.554688 25.128906 -19.46875 C 25.042969 -19.382812 24.957031 -19.210938 24.957031 -19.039062 C 24.957031 -18.78125 24.957031 -18.4375 24.957031 -18.097656 C 25.386719 -18.609375 25.558594 -19.039062 25.558594 -19.640625 Z M 27.957031 -19.898438 C 27.957031 -20.152344 27.957031 -20.410156 27.617188 -20.324219 C 27.445312 -20.324219 27.359375 -20.238281 27.359375 -19.898438 C 27.445312 -19.640625 27.53125 -19.46875 27.785156 -19.46875 C 27.957031 -19.382812 27.957031 -19.640625 27.957031 -19.898438 Z M 20.667969 -6.261719 C 20.070312 -6.089844 19.898438 -5.746094 19.898438 -5.144531 C 20.582031 -5.230469 20.582031 -5.230469 20.667969 -6.003906 C 20.667969 -6.089844 20.667969 -6.175781 20.667969 -6.261719 Z M 24.269531 -16.722656 C 24.957031 -16.894531 24.957031 -17.582031 24.957031 -18.097656 C 24.441406 -17.753906 24.269531 -17.324219 24.269531 -16.722656 Z M 27.617188 -27.445312 C 28.128906 -27.871094 28.214844 -28.300781 28.300781 -28.988281 L 28.300781 -28.816406 C 27.617188 -28.644531 27.703125 -28.042969 27.703125 -27.445312 Z M 22.640625 -13.722656 C 23.070312 -13.894531 23.328125 -14.238281 23.242188 -14.921875 L 23.328125 -14.835938 C 22.8125 -14.75 22.640625 -14.238281 22.640625 -13.722656 Z M 29.246094 -31.5625 C 29.503906 -31.644531 29.589844 -31.816406 29.589844 -31.988281 C 29.589844 -32.160156 29.589844 -32.417969 29.589844 -32.589844 L 29.671875 -32.589844 C 29.160156 -32.332031 29.332031 -31.902344 29.332031 -31.5625 Z M 22.554688 -15.179688 C 22.554688 -15.265625 22.46875 -15.351562 22.46875 -15.4375 C 22.382812 -15.265625 22.382812 -15.179688 22.382812 -15.09375 C 22.46875 -15.09375 22.554688 -15.09375 22.554688 -15.179688 Z M 30.53125 -34.820312 C 30.617188 -34.90625 30.617188 -35.078125 30.617188 -35.25 C 30.53125 -35.078125 30.445312 -34.992188 30.359375 -34.90625 C 30.359375 -34.90625 30.445312 -34.648438 30.445312 -34.5625 C 30.53125 -34.648438 30.53125 -34.648438 30.53125 -34.820312 Z M 30.617188 -35.25 C 30.960938 -35.335938 30.960938 -35.675781 30.960938 -35.933594 C 30.53125 -35.847656 30.617188 -35.589844 30.617188 -35.25 Z M 30.960938 -35.933594 C 31.304688 -36.019531 31.304688 -36.363281 31.304688 -36.792969 C 30.875 -36.621094 30.960938 -36.191406 30.960938 -35.933594 Z M 31.304688 -36.792969 C 31.390625 -36.878906 31.476562 -36.964844 31.5625 -37.136719 C 31.5625 -37.136719 31.476562 -37.222656 31.476562 -37.308594 C 31.390625 -37.308594 31.390625 -37.308594 31.304688 -37.222656 C 31.304688 -37.050781 31.304688 -36.964844 31.304688 -36.792969 Z M 27.703125 -27.445312 C 27.53125 -27.273438 27.445312 -27.1875 27.359375 -27.101562 C 27.359375 -27.015625 27.445312 -26.929688 27.53125 -26.84375 C 27.617188 -27.101562 27.617188 -27.273438 27.617188 -27.445312 Z M 21.785156 -9.003906 C 21.871094 -8.917969 21.957031 -8.917969 22.039062 -8.917969 C 22.039062 -8.917969 22.125 -8.917969 22.125 -9.003906 C 22.125 -9.003906 22.039062 -9.175781 21.957031 -9.175781 C 21.871094 -9.175781 21.871094 -9.003906 21.785156 -9.003906 Z M 25.984375 -19.640625 C 26.070312 -19.554688 25.984375 -19.296875 26.242188 -19.46875 C 26.15625 -19.46875 26.070312 -19.554688 25.984375 -19.554688 Z M 19.898438 -7.460938 C 19.8125 -7.460938 19.640625 -7.460938 19.554688 -7.460938 C 19.640625 -7.375 19.726562 -7.289062 19.726562 -7.117188 C 19.8125 -7.289062 19.8125 -7.375 19.898438 -7.460938 Z M 17.324219 -3 C 17.324219 -2.832031 17.238281 -2.574219 17.496094 -2.746094 C 17.410156 -2.832031 17.324219 -2.832031 17.238281 -2.832031 Z M 23.15625 -16.125 L 23.070312 -16.125 L 23.070312 -16.039062 Z M 25.730469 -15.953125 C 25.730469 -15.78125 25.730469 -15.609375 25.730469 -15.523438 L 25.558594 -15.523438 C 25.730469 -15.609375 25.816406 -15.695312 25.898438 -15.695312 C 25.816406 -15.78125 25.730469 -15.78125 25.558594 -15.953125 Z M 30.1875 -33.960938 L 30.101562 -33.960938 L 30.101562 -33.789062 Z M 27.101562 -26.070312 L 27.1875 -26.070312 L 27.1875 -26.15625 Z M 29.589844 -32.589844 C 29.671875 -32.675781 29.929688 -32.589844 29.757812 -33.019531 C 29.757812 -32.933594 29.671875 -32.675781 29.671875 -32.589844 Z M 29.589844 -32.589844 "/></g></g></g><g fill="#ffffff" fill-opacity="1"><g transform="translate(195.059932, 200.427364)"><g/></g></g><g fill="#ffffff" fill-opacity="1"><g transform="translate(220.101194, 200.427364)"><g><path d="M 41.164062 -2.488281 C 41.164062 -2.488281 41.082031 -2.402344 40.996094 -2.402344 C 40.824219 -2.402344 40.652344 -2.488281 40.738281 -2.660156 C 40.738281 -2.660156 40.738281 -2.746094 40.910156 -2.746094 C 40.996094 -2.746094 41.082031 -2.660156 41.164062 -2.660156 Z M 46.140625 -5.660156 C 46.226562 -6.003906 46.484375 -6.003906 46.910156 -6.003906 C 46.742188 -5.660156 46.398438 -5.660156 46.140625 -5.660156 Z M 46.828125 -6.003906 C 46.910156 -6.261719 47.082031 -6.347656 47.253906 -6.519531 C 47.253906 -6.261719 47.082031 -6.003906 46.828125 -6.003906 Z M 47.253906 -6.519531 C 47.339844 -6.691406 47.425781 -6.773438 47.597656 -6.859375 C 47.597656 -6.605469 47.425781 -6.519531 47.253906 -6.519531 Z M 47.597656 -6.773438 C 47.597656 -7.03125 47.769531 -7.117188 47.941406 -7.203125 C 47.941406 -6.945312 47.769531 -6.859375 47.597656 -6.773438 Z M 47.941406 -7.117188 C 47.941406 -7.375 48.113281 -7.546875 48.285156 -7.546875 C 48.199219 -7.289062 48.113281 -7.203125 47.941406 -7.117188 Z M 49.140625 -8.234375 C 49.140625 -7.71875 48.96875 -7.546875 48.285156 -7.546875 C 48.371094 -7.890625 48.800781 -8.148438 49.140625 -8.234375 Z M 49.140625 -8.234375 C 49.140625 -8.234375 49.054688 -8.234375 49.054688 -8.234375 Z M 53.6875 -13.808594 C 52.914062 -13.035156 52.65625 -11.835938 51.628906 -11.148438 C 51.972656 -12.605469 52.65625 -13.722656 53.859375 -14.492188 C 53.773438 -14.324219 53.773438 -13.980469 53.6875 -13.808594 Z M 55.746094 -18.953125 C 55.832031 -19.296875 56.347656 -19.8125 56.601562 -19.8125 C 56.6875 -19.8125 56.6875 -19.726562 56.6875 -19.726562 C 56.6875 -19.296875 56.515625 -19.039062 56.175781 -18.523438 C 56.003906 -18.523438 55.832031 -18.78125 55.746094 -18.953125 Z M 58.660156 -26.757812 C 58.574219 -26.757812 58.574219 -26.757812 58.488281 -26.84375 C 58.660156 -27.015625 58.574219 -26.84375 58.660156 -26.757812 Z M 55.660156 -16.039062 C 55.660156 -15.953125 55.660156 -15.953125 55.660156 -15.867188 C 55.230469 -15.867188 55.316406 -15.523438 55.316406 -15.265625 C 55.144531 -15.351562 54.972656 -15.351562 54.886719 -15.351562 C 54.800781 -15.351562 54.714844 -15.265625 54.546875 -15.007812 C 54.375 -14.835938 54.03125 -14.664062 53.773438 -14.492188 C 53.945312 -15.351562 54.460938 -16.210938 54.972656 -16.722656 C 54.972656 -17.066406 54.972656 -18.097656 55.488281 -18.097656 C 55.660156 -18.097656 55.917969 -17.839844 56.003906 -17.839844 C 56.515625 -17.925781 56.6875 -18.265625 56.859375 -18.523438 C 57.546875 -19.726562 58.148438 -21.183594 58.234375 -22.554688 C 58.320312 -23.15625 57.890625 -23.84375 58.574219 -24.355469 C 58.746094 -24.441406 58.660156 -24.785156 58.660156 -25.042969 L 58.660156 -26.671875 C 58.746094 -26.757812 58.917969 -26.757812 58.917969 -26.84375 C 59.089844 -27.871094 59.089844 -28.902344 58.917969 -29.757812 C 58.746094 -30.445312 58.746094 -30.960938 58.660156 -31.5625 C 58.660156 -31.988281 58.746094 -32.332031 58.574219 -32.589844 C 58.234375 -33.277344 58.148438 -33.960938 58.574219 -34.648438 C 58.660156 -34.734375 58.574219 -34.90625 58.488281 -35.078125 C 58.402344 -35.335938 57.203125 -39.707031 57.203125 -39.964844 C 57.203125 -40.652344 56.773438 -41.25 57.203125 -41.9375 C 57.203125 -42.023438 57.117188 -42.28125 57.03125 -42.367188 C 56.089844 -42.796875 56.003906 -43.652344 56.089844 -44.511719 C 56.089844 -45.195312 56.003906 -45.882812 55.402344 -46.3125 C 55.144531 -46.484375 54.972656 -46.65625 54.972656 -47.082031 C 54.972656 -47.597656 54.714844 -47.941406 54.546875 -48.371094 C 53.859375 -49.226562 53.515625 -50.171875 53.171875 -51.027344 C 53.085938 -51.199219 53.085938 -51.542969 52.914062 -51.628906 C 52.402344 -51.886719 52.230469 -52.230469 52.058594 -52.65625 C 51.800781 -53.171875 51.628906 -53.601562 51.371094 -54.03125 C 51.027344 -54.714844 50.6875 -55.144531 50.34375 -55.574219 C 50.171875 -56.089844 49.398438 -56.261719 49.65625 -56.945312 C 49.398438 -57.632812 48.882812 -57.890625 48.371094 -58.402344 C 48.371094 -58.488281 48.285156 -58.488281 48.199219 -58.746094 C 47.167969 -60.375 45.453125 -61.492188 43.910156 -62.691406 C 40.824219 -65.09375 36.792969 -66.207031 32.933594 -66.722656 C 32.503906 -66.808594 32.074219 -66.808594 31.644531 -66.808594 C 31.21875 -66.808594 30.789062 -66.808594 30.359375 -66.808594 C 30.101562 -66.894531 29.757812 -66.894531 29.503906 -66.894531 C 28.816406 -66.894531 28.214844 -66.808594 27.703125 -66.722656 C 26.328125 -66.636719 24.957031 -66.464844 23.757812 -66.121094 C 23.070312 -65.78125 22.296875 -65.523438 21.699219 -65.265625 C 20.152344 -64.75 18.523438 -64.148438 17.324219 -63.121094 C 16.722656 -62.691406 16.292969 -62.261719 15.609375 -61.921875 C 14.664062 -61.320312 13.980469 -60.460938 12.863281 -59.777344 C 12.691406 -59.691406 12.605469 -59.519531 12.519531 -59.433594 C 11.921875 -58.660156 11.320312 -57.804688 10.890625 -56.945312 C 10.546875 -56.175781 10.804688 -55.316406 10.804688 -54.460938 C 10.804688 -53.6875 10.976562 -53.515625 11.578125 -53.515625 C 11.664062 -53.515625 11.835938 -53.515625 11.921875 -53.515625 C 12.351562 -53.601562 12.691406 -53.6875 12.863281 -54.03125 C 13.207031 -54.628906 13.550781 -55.058594 13.808594 -55.574219 C 17.152344 -60.035156 20.667969 -62.09375 26.070312 -63.722656 C 26.15625 -63.722656 26.242188 -63.722656 26.242188 -63.722656 C 27.101562 -63.722656 27.957031 -64.148438 28.730469 -64.148438 C 29.671875 -64.148438 30.703125 -64.148438 31.730469 -64.320312 C 31.816406 -64.320312 31.988281 -64.320312 32.074219 -64.320312 C 33.875 -64.320312 35.589844 -63.722656 37.476562 -63.207031 C 46.226562 -60.546875 51.886719 -50.601562 54.714844 -42.625 C 55.058594 -41.59375 55.144531 -40.308594 55.402344 -39.109375 C 55.832031 -37.5625 56.089844 -36.019531 56.089844 -34.390625 C 56.089844 -34.132812 56.003906 -33.789062 56.261719 -33.53125 C 56.433594 -32.847656 56.433594 -32.332031 56.433594 -31.730469 C 56.433594 -29.671875 56.601562 -27.53125 56.089844 -25.472656 C 56.089844 -21.785156 53.515625 -16.464844 51.628906 -13.464844 C 51.113281 -12.777344 50.601562 -12.09375 50 -11.492188 C 49.3125 -10.890625 48.628906 -10.207031 48.113281 -9.433594 C 48.027344 -9.261719 47.855469 -9.089844 47.683594 -9.003906 C 46.140625 -7.890625 44.769531 -6.773438 43.222656 -5.746094 C 41.679688 -4.800781 39.878906 -4.203125 38.25 -3.34375 C 37.648438 -2.914062 30.960938 -1.199219 30.101562 -1.027344 C 29.246094 -0.859375 28.386719 -0.773438 27.617188 -0.601562 C 26.070312 -0.429688 24.441406 -0.0859375 22.8125 -0.0859375 C 22.640625 -0.0859375 22.46875 -0.0859375 22.296875 -0.0859375 C 22.210938 -0.0859375 22.210938 -0.0859375 22.125 -0.0859375 C 21.871094 -0.0859375 21.613281 0 21.183594 0.0859375 C 21.011719 0.171875 20.753906 0 20.753906 -0.257812 C 20.753906 -0.601562 20.667969 -1.113281 20.839844 -1.371094 C 21.011719 -1.886719 21.011719 -2.316406 21.097656 -2.832031 C 21.527344 -4.117188 21.785156 -5.488281 22.125 -6.859375 C 22.554688 -8.234375 22.554688 -9.777344 23.242188 -11.234375 C 23.328125 -11.320312 23.328125 -11.40625 23.328125 -11.492188 C 23.242188 -12.351562 23.414062 -13.035156 23.757812 -13.722656 C 24.097656 -14.40625 24.011719 -15.265625 24.183594 -16.039062 C 24.785156 -17.839844 25.214844 -19.726562 25.816406 -21.527344 C 26.070312 -22.898438 26.328125 -24.269531 26.671875 -25.472656 C 27.015625 -27.015625 27.53125 -28.644531 27.871094 -30.359375 C 28.644531 -33.277344 29.246094 -36.449219 30.101562 -39.449219 C 30.359375 -40.394531 30.53125 -41.335938 30.617188 -42.28125 C 30.703125 -43.136719 30.617188 -43.910156 30.960938 -44.683594 C 30.960938 -44.769531 30.960938 -45.109375 30.875 -45.195312 C 30.703125 -45.625 30.703125 -46.140625 30.703125 -46.570312 C 30.617188 -47.425781 30.1875 -47.941406 29.757812 -48.542969 C 29.671875 -48.800781 29.332031 -48.96875 28.988281 -48.96875 C 28.902344 -48.96875 28.730469 -48.96875 28.644531 -48.882812 C 28.214844 -48.714844 28.042969 -48.371094 28.042969 -48.027344 C 28.128906 -46.742188 27.957031 -45.710938 27.871094 -44.597656 C 27.703125 -43.480469 27.273438 -42.367188 27.273438 -41.335938 C 26.757812 -40.308594 27.101562 -39.023438 26.585938 -37.90625 C 26.5 -35.933594 25.816406 -33.875 25.300781 -31.902344 C 24.957031 -30.359375 24.441406 -28.644531 24.011719 -27.101562 C 23.414062 -24.355469 22.554688 -21.785156 22.039062 -19.039062 C 21.871094 -17.753906 21.269531 -16.550781 21.097656 -15.265625 C 20.925781 -13.980469 20.324219 -12.863281 20.324219 -11.492188 C 19.726562 -9.519531 19.382812 -7.375 18.867188 -5.402344 C 18.4375 -4.203125 18.523438 -3.085938 18.183594 -1.972656 C 17.496094 0.0859375 18.011719 0.171875 15.867188 0.171875 C 15.695312 0.171875 15.523438 0.171875 15.351562 0.171875 L 14.835938 0.171875 C 14.40625 -0.0859375 13.980469 -0.0859375 13.464844 -0.0859375 C 11.578125 -0.0859375 10.890625 -0.257812 9.089844 -0.773438 C 8.40625 -0.773438 7.03125 -1.113281 6.605469 -1.542969 C 6.433594 -1.628906 6.089844 -1.714844 5.917969 -1.886719 C 4.375 -2.230469 3.257812 -3.34375 1.886719 -4.03125 C 1.113281 -4.375 0.6875 -5.316406 -0.257812 -5.660156 C -0.257812 -3.945312 -0.257812 -4.03125 0.945312 -2.832031 C 1.542969 -2.144531 2.488281 -1.542969 3.257812 -1.027344 C 3.601562 -0.773438 4.03125 -0.601562 4.632812 -0.257812 C 6.003906 0.601562 7.804688 0.945312 9.347656 1.628906 C 10.292969 1.628906 10.976562 1.972656 11.921875 1.972656 C 12.007812 1.972656 12.09375 1.972656 12.179688 1.972656 C 13.035156 1.972656 13.894531 2.316406 14.75 2.316406 C 14.835938 2.316406 14.921875 2.316406 15.007812 2.316406 C 15.609375 2.316406 16.210938 2.746094 16.722656 2.832031 C 16.808594 2.832031 16.894531 3.085938 16.980469 3.34375 C 16.980469 3.515625 16.894531 3.6875 16.894531 3.773438 C 16.808594 4.375 16.980469 4.886719 17.496094 5.230469 C 17.582031 5.144531 17.667969 5.144531 17.753906 5.144531 C 18.097656 5.144531 18.183594 5.660156 18.351562 5.832031 C 18.4375 5.917969 18.523438 5.917969 18.695312 5.917969 C 18.78125 5.917969 18.953125 5.917969 19.039062 5.746094 C 19.382812 5.144531 19.554688 4.460938 19.726562 3.6875 C 19.726562 2.914062 20.152344 2.574219 20.753906 2.402344 L 21.871094 2.402344 C 22.039062 2.488281 22.210938 2.574219 22.382812 2.574219 C 22.46875 2.574219 22.640625 2.488281 22.8125 2.402344 C 23.757812 2.316406 24.613281 2.316406 25.472656 2.316406 C 25.558594 2.316406 25.644531 2.316406 25.730469 2.316406 C 26.15625 2.316406 26.671875 2.230469 27.1875 2.230469 C 27.445312 2.230469 27.703125 2.230469 27.957031 2.316406 C 28.128906 2.402344 28.386719 2.402344 28.644531 2.402344 C 29.160156 2.402344 29.757812 2.230469 30.359375 1.886719 C 30.789062 1.628906 31.132812 1.371094 31.730469 1.371094 C 32.417969 1.457031 33.105469 0.945312 33.789062 0.773438 C 33.789062 0.257812 33.875 0.171875 34.132812 0.257812 C 34.5625 0.515625 34.992188 0.601562 35.417969 0.601562 C 35.933594 0.601562 36.449219 0.429688 36.878906 0.257812 C 38.164062 -0.257812 39.277344 -1.027344 40.566406 -1.371094 C 40.910156 -1.371094 40.996094 -1.542969 41.25 -1.628906 C 41.507812 -1.886719 41.679688 -1.972656 41.851562 -1.972656 C 42.625 -2.058594 44.941406 -3.601562 45.28125 -4.375 C 44.855469 -4.886719 44.769531 -4.972656 45.023438 -5.144531 C 45.367188 -5.316406 45.796875 -5.488281 46.140625 -5.660156 C 46.140625 -5.488281 46.054688 -5.230469 46.3125 -5.058594 C 46.398438 -5.058594 46.742188 -5.058594 46.828125 -5.144531 C 47.339844 -5.316406 47.683594 -5.574219 48.027344 -5.917969 C 48.628906 -6.605469 49.140625 -7.117188 49.65625 -7.71875 C 49.742188 -7.890625 49.65625 -8.0625 49.398438 -8.148438 C 49.3125 -8.234375 49.226562 -8.234375 49.140625 -8.234375 L 49.054688 -8.234375 C 49.3125 -8.746094 49.570312 -9.261719 50 -9.605469 C 50.515625 -10.121094 50.941406 -10.890625 51.628906 -11.148438 C 51.714844 -10.890625 51.542969 -10.632812 51.371094 -10.207031 C 51.027344 -9.949219 50.855469 -9.777344 50.941406 -9.433594 C 50.6875 -9.261719 50.601562 -9.175781 50.34375 -9.003906 C 50.257812 -8.832031 50.257812 -8.746094 50.34375 -8.746094 L 50.769531 -8.746094 C 50.941406 -8.917969 50.855469 -9.089844 50.855469 -9.347656 C 51.542969 -9.691406 52.058594 -10.121094 52.402344 -10.890625 C 52.574219 -11.234375 52.914062 -11.492188 53.257812 -11.835938 C 54.460938 -12.691406 54.972656 -13.894531 55.316406 -15.265625 C 55.660156 -15.351562 55.660156 -15.609375 55.746094 -15.867188 Z M 56.601562 -20.582031 C 56.601562 -20.667969 56.515625 -20.753906 56.515625 -20.839844 C 56.515625 -20.839844 56.601562 -20.925781 56.6875 -20.925781 C 56.6875 -20.753906 56.6875 -20.667969 56.601562 -20.582031 Z M 57.71875 -28.644531 C 57.632812 -28.816406 57.632812 -28.902344 57.632812 -28.988281 C 57.71875 -28.988281 57.804688 -28.902344 57.804688 -28.816406 C 57.804688 -28.816406 57.71875 -28.644531 57.71875 -28.644531 Z M -0.257812 -5.660156 C -0.34375 -5.746094 -0.257812 -6.003906 -0.515625 -5.832031 C -0.429688 -5.746094 -0.34375 -5.746094 -0.257812 -5.660156 Z M 55.660156 -16.039062 C 55.746094 -16.039062 56.003906 -16.039062 55.832031 -16.292969 C 55.832031 -16.210938 55.746094 -16.039062 55.746094 -15.867188 Z M 54.972656 -16.722656 C 55.058594 -16.636719 54.972656 -16.378906 55.230469 -16.636719 C 55.144531 -16.636719 55.058594 -16.722656 54.972656 -16.722656 Z M 54.972656 -16.722656 "/></g></g></g></svg>